<?xml version="1.0" encoding="UTF-8" standalone="no"?>
<svg
   xmlns:dc="http://purl.org/dc/elements/1.1/"
   xmlns:cc="http://creativecommons.org/ns#"
   xmlns:rdf="http://www.w3.org/1999/02/22-rdf-syntax-ns#"
   xmlns:svg="http://www.w3.org/2000/svg"
   xmlns="http://www.w3.org/2000/svg"
   xmlns:sodipodi="http://sodipodi.sourceforge.net/DTD/sodipodi-0.dtd"
   xmlns:inkscape="http://www.inkscape.org/namespaces/inkscape"
   version="1.1"
   id="svg2"
   xml:space="preserve"
   width="327.49778"
   height="63.67556"
   viewBox="0 0 982.49335 191.02667"
   sodipodi:docname="Woordlogo_Aventus_kleur (1).eps"><metadata
     id="metadata8"><rdf:RDF><cc:Work
         rdf:about=""><dc:format>image/svg+xml</dc:format><dc:type
           rdf:resource="http://purl.org/dc/dcmitype/StillImage" /></cc:Work></rdf:RDF></metadata><defs
     id="defs6" /><sodipodi:namedview
     pagecolor="#ffffff"
     bordercolor="#666666"
     borderopacity="1"
     objecttolerance="10"
     gridtolerance="10"
     guidetolerance="10"
     inkscape:pageopacity="0"
     inkscape:pageshadow="2"
     inkscape:window-width="640"
     inkscape:window-height="480"
     id="namedview4" /><g
     id="g10"
     inkscape:groupmode="layer"
     inkscape:label="ink_ext_XXXXXX"
     transform="matrix(1.3333333,0,0,-1.3333333,0,191.02667)"><g
       id="g12"
       transform="scale(0.1)"><path
         d="M 2388.93,962.426 C 2112.12,961.156 1956.96,752.336 1958.23,469.98 1959.73,144.77 2123.9,-1.32031 2417.46,0.0117188 2532.7,0.53125 2649.68,21.5508 2747.93,60.9492 l -23.04,183.9218 c -79.78,-37.551 -178.21,-58.461 -269.19,-58.859 -170.98,-0.813 -256.82,82.429 -255.84,255.261 l 572.39,2.598 c 5.43,39.109 7.05,76.25 6.88,107.848 -0.98,228.515 -120.73,411.922 -390.2,410.707 M 2202.92,602.957 c 12.54,111.543 80.93,184.328 179.42,184.789 100.34,0.402 163.76,-67.988 160.65,-183.23 l -340.07,-1.559"
         style="fill:#323232;fill-opacity:1;fill-rule:nonzero;stroke:none"
         id="path14" /><path
         d="m 374.449,407.828 114.199,319.313 c 24.321,72.343 44.829,155.242 59.672,220.132 h 1.907 C 565.707,876.965 585,805.359 609.953,736.91 l 120.902,-327.5 z m 322.27,805.802 -1.594,-0.01 v 1.35 H 165.332 V 1027.22 H 353.137 L 0,20.3203 h 246.176 l 66.578,196.3907 483.379,2.148 69.59,-198.5387 H 1138.87 L 696.719,1213.63"
         style="fill:#323232;fill-opacity:1;fill-rule:nonzero;stroke:none"
         id="path16" /><path
         d="m 1726.09,947.273 -150.6,-432.414 c -21.95,-63.312 -40.2,-134.019 -54.82,-197.269 h -3.69 c -16.99,64.988 -39.63,139.215 -62.27,204.086 0,0 -152.48,425.437 -153.58,425.429 H 991.906 V 763.023 H 1110.93 L 1392.22,20.3203 h 241.27 l 345.13,926.9527 h -252.53"
         style="fill:#323232;fill-opacity:1;fill-rule:nonzero;stroke:none"
         id="path18" /><path
         d="m 3760.25,673.203 c -0.75,161.625 -68.22,295.121 -276.34,294.195 -141.43,-0.648 -244.75,-68.359 -302.53,-167.656 v 147.363 h -357.83 v -18.05 c -0.02,-0.004 -0.05,-0.008 -0.07,-0.012 l 0.07,-17.27 V 762.355 H 2959 l 3.4,-743.1362 235.97,1.1015 -2.02,447.7617 c -0.75,161.684 93.35,299.566 214.14,300.145 87.34,0.406 113.62,-57.071 114.02,-153.711 l 2.72,-594.1957 235.97,1.0391 -2.95,651.8436"
         style="fill:#323232;fill-opacity:1;fill-rule:nonzero;stroke:none"
         id="path20" /><path
         d="m 4448.68,224.832 c -33.45,-9.41 -76.2,-15.191 -115.25,-15.422 -81.73,-0.351 -109.69,32.981 -110.27,151.86 l -1.83,401.339 h 168.28 v 184.082 h -169.18 l -1.14,270.489 -237.59,-64.24 0.86,-206.249 H 3820.68 V 762.609 h 164.68 l 2.12,-465.57 c 1.04,-215.5195 64.47,-289.57806 268.9,-288.64837 65.04,0.28906 133.78,9.87887 193.16,25.07027 l -0.86,191.3711"
         style="fill:#323232;fill-opacity:1;fill-rule:nonzero;stroke:none"
         id="path22" /><path
         d="m 5540.35,208.02 h -121.99 l -3.34,739.253 h -236.03 l 2.08,-438.519 c 0.69,-161.684 -93.41,-299.574 -214.25,-300.145 -87.34,-0.41 -113.57,57.071 -114.03,153.653 l -2.61,541.847 v 42.582 H 4465.76 V 762.609 h 147.46 l 2.04,-458.98 c 0.76,-161.68 68.22,-295.17978 278.2,-294.19931 142.4,0.66011 246.26,69.50001 302.22,170.05831 V 20.3203 h 344.67 V 208.02"
         style="fill:#323232;fill-opacity:1;fill-rule:nonzero;stroke:none"
         id="path24" /><path
         d="m 7355.96,996.438 c 0,-235.083 -190.58,-425.653 -425.66,-425.653 -235.08,0 -425.65,190.57 -425.65,425.653 0,235.082 190.57,425.652 425.65,425.652 235.08,0 425.66,-190.57 425.66,-425.652"
         style="fill:#5cc3cd;fill-opacity:1;fill-rule:nonzero;stroke:none"
         id="path26" /><path
         d="m 6932.77,556.848 c -241.5,-1.114 -438.8,194.445 -439.91,435.902 -1.11,241.5 194.45,438.8 435.95,439.91 241.45,1.11 438.75,-194.45 439.86,-435.957 1.11,-241.453 -194.45,-438.746 -435.9,-439.855 m -3.81,833.722 c -218.25,-1.01 -394.98,-179.39 -394.02,-397.629 1.07,-218.242 179.39,-394.976 397.63,-394.011 218.25,1.015 395.03,179.39 394.02,397.629 -1.02,218.241 -179.39,394.981 -397.63,394.011"
         style="fill:#323232;fill-opacity:1;fill-rule:nonzero;stroke:none"
         id="path28" /><path
         d="m 6868.51,947.074 37.18,106.306 c 7.9,24.09 14.59,48.23 19.43,69.82 h 0.6 c 5.05,-23.45 11.31,-43.74 19.43,-66.54 l 39.38,-109.066 z m 104.92,268.316 h -171.34 v -61.73 h 58.1 c 0.45,-0.07 0.98,-0.13 1.41,-0.19 L 6742.71,807.387 h 80.21 l 25.51,76.043 157.39,0.691 26.5,-76.734 h 89.1 l -147.99,408.003"
         style="fill:#323232;fill-opacity:1;fill-rule:nonzero;stroke:none"
         id="path30" /><path
         d="m 5832.29,703.109 c -0.23,57.532 44.13,94.907 137.07,95.313 57.54,0.289 118.94,-8.723 170.99,-23.34 l 0.59,188.016 c -55.69,9.07 -109.19,15.894 -163.09,15.664 -260.17,-1.211 -391.47,-135.633 -390.72,-297.258 1.39,-314.004 374.49,-219.391 375.24,-382.922 0.29,-61.344 -59.09,-98.781 -150.07,-99.184 -70.13,-0.289 -140.35,12.262 -197.79,26.704 V 30.3906 c 58.02,-8.5898 122.73,-15.25 187.45,-14.9687 252.66,1.1484 411.92,124.4761 411.11,306.6091 -1.38,299.168 -380.09,230.543 -380.78,381.078"
         style="fill:#323232;fill-opacity:1;fill-rule:nonzero;stroke:none"
         id="path32" /></g></g></svg>
